<?xml version="1.0" encoding="UTF-8" standalone="no"?>
<svg viewBox="0 0 321 436.08939" xmlns="http://www.w3.org/2000/svg" xmlns:xlink="http://www.w3.org/1999/xlink">
<defs>
<linearGradient id="linearGradient5991">
<stop offset="0" stop-color="#595959"/>
<stop offset="1" stop-color="#cbc8c8"/>
</linearGradient>
<linearGradient gradientUnits="userSpaceOnUse" id="linearGradient5997" x1="234.5" x2="550.5" xlink:href="#linearGradient5991"/>
<radialGradient cx="388.93039" cy="184.51657" gradientTransform="matrix(1,0,0,.2406,0,140.12162)" gradientUnits="userSpaceOnUse" id="radialGradient6197" r="155.01364" xlink:href="#linearGradient5991"/>
</defs>
<title>Nice Baked Beans</title>
<g transform="translate(-229,-147.22007)">
<path d="m237.30397,171.71579c38.23683-18.88586 192.06076-35.50092 303.25287-1.35361-99.85563,62.25872-200.88607,65.41959-303.25287,1.35361z" fill="url(#radialGradient6197)" stroke="#6a6a6a" stroke-width="6.77442"/>
<path d="m229,171.36218 13,400c90.36885,13.62389 182.68066,18.82823 281-2l27-400c-129.56688,23.23355-228.37205,15.70538-321,2z" fill="url(#linearGradient5997)"/>
<path d="m229.80971,185.44927c143.50619,18.22491 245.10055,13.79477 318.90516-5.65686l-25.45585,380.42345c-94.89807,21.38991-188.40565,16.36056-281.4285,2.12132z" fill="#119e97"/>
<path d="m272.94322,239.89649 21.2132,88.38834-55.86143-7.77817c8.51641,72.37616 16.68427,144.57804 32.52691,220.61732 75.7655,12.46949 150.26776,11.0434 224.15285,2.82843 12.72792-42.02134 25.45584-126.27273 38.18376-220.61732l-55.86143,5.65686 13.43503-89.09546c-67.19256-26.11805-139.28723-28.54261-217.78889,0z" fill="#bfae21"/>
<path d="m283.22086,247.33005 22.81563,92.34074-54.30647-6.67217c7.74033,68.66444 15.16388,127.97115 29.56283,200.11085 68.86121,11.83001 136.57429,10.47706 203.72645,2.68338 11.56806-39.86633 23.84323-110.6046 35.41129-200.11085l-52.18516,5.36676 12.91785-93.71871c-61.0695-24.77862-126.59439-27.07883-197.94242,0z" fill="#fff"/>
<path d="m288.63452,251.04683 23.73612,95.50181-54.27666-6.49183c7.33294,66.80858 15.07289,118.8555 28.714,189.04541 65.23694,11.51027 129.38617,10.19388 193.004,2.61085 10.95922-38.78882 22.58833-101.25122 33.54754-188.3383l-50.85278,4.5146 13.65217-96.84254c-57.85531-24.1089-119.93152-26.34694-187.52439,0z" fill="#333"/>
<path d="m343.88817,248.9198c-5.96176.95555-4.93818,8.91301-3.48287,13.91347l6.18047,31.38103c-1.94397.59225-3.98663,1.7876-5.44264-.60196l-30.02737-26.67772c2.00223,9.3057 3.31908,18.87244 5.91907,27.95324 1.42108,4.32504 8.17493.53072 6.64644,5.96558l-14.92476,4.37107c-2.82463-5.27792 4.96454-4.12686 3.88649-9.71873-1.47698-10.70105-4.0014-21.16608-5.94598-31.76129-2.13407-3.26297-8.16839-.51603-6.77625-5.67317l13.15964-3.85412 26.45312,23.43552c-1.57192-7.24098-2.53848-14.71577-4.69466-21.73628-1.43456-4.97329-7.32986-.11569-6.88863-6.05423l15.24424-4.46464 .69369,3.52223zm32.81327,42.74996-21.37239,1.29434c-2.27341-6.45166 6.44934-1.47773 5.41662-7.64709-.52142-11.92352-.89956-23.86141-1.51208-35.7758-1.95525-1.88317-8.17676-.98928-5.21825-4.98993l20.71606-1.2546c2.28423,6.50096-6.57879,1.43353-5.46883,7.71741 .54514,11.8429.83916,23.71351 1.54373,35.53883 1.8112,3.58382 7.09042-1.14166 5.89514,5.11684zm42.64621-12.58164c-1.77519,7.63969-6.97823,14.6365-13.86027,14.74406-8.27765.76041-17.81328-3.07422-21.1265-13.18566-5.12737-13.57784.89636-32.2831 13.2245-35.94694 6.15536-1.92313 13.09639-.48748 18.05675,4.48635 1.66884-1.21512 3.09214-3.63085 5.23745-2.51605 .84112,1.41905-.22999,4.71924-.10603,6.84377l-.9038,12.33651c-5.14346,1.56677-2.66873-7.3759-5.30227-10.61891-2.68352-8.4347-13.72577-10.82692-17.40357-2.18501-3.55979,8.20127-4.41507,18.06519-3.36252,27.17675 .71507,7.55754 7.52059,11.73504 13.21705,9.79229 5.96805.0654 6.89799-11.04256 10.27627-11.87355l2.05294.94639zm42.79646,8.53904-3.92057,17.41861-36.42418-10.08641c-.76668-7.02544 6.73499.82335 6.94297-5.7799 2.08048-11.51802 4.40949-22.98274 6.33222-34.53461-1.0666-2.63193-7.68555-3.81617-3.83927-6.73829l35.35421,9.79013-2.84534,17.09725c-5.13486.18561-1.98756-8.19357-4.94407-11.61867-2.63677-5.1089-8.35951-7.23868-13.01881-6.42546-2.30622,4.07736-2.32491,9.42697-3.47634,14.12428-1.51238,4.4997 5.87314,2.73962 7.16122.34657 .71878-2.96159 4.46286-7.64617 5.17596-3.28654l-3.91128,21.00382c-4.84638.53716-1.59595-6.09555-4.26285-9.07882-1.78286-2.79445-6.30502-5.17119-5.87377.2016-.69474,4.74016-2.19004,9.41856-2.20339,14.21781 3.07319,3.72097 8.80856,4.17586 12.88538,2.76848 5.18808-.43459 5.55297-11.44678 10.26764-9.58607l.32041.0887 .27986.0775z" fill="#fff" stroke="#cfb533" stroke-width="1.06577"/>
<path d="m300.26396,380.68118c9.39159-.0723 4.26704-12.0774-2.76291-9.60879-4.05062-1.57358-2.46887,3.59383-2.95924,6.28129-1.53564,4.36792 2.84823,2.89354 5.31987,3.30644l.40228.0211zm-.50727,19.53073c9.27644,1.88062 8.11348-14.40366-.84569-11.75468-3.15815-.54247-6.0092-.71741-5.02511,3.69769 .57707,2.36733-1.84592,7.69558 1.02081,7.80311l4.84999.25388zm10.55359-15.53065c9.73502,3.13719 8.47966,20.84531-1.46715,22.61305-8.65561,1.74273-17.49208-.0351-26.23163-.13301l1.97699-44.61172c8.66974.8361 17.65411-.16379 25.9865,2.94392 7.51389,2.86331 7.68133,16.83288-.26471,19.18776zm40.18367,17.02122-16.57-1e-005c-1.13816,2.53647-1.41799,6.38689-3.06988,8.13695h-10.19714l15.22128-44.66342h12.63395l15.22128,44.66342h-10.65215l-2.58734-8.13694zm-13.92761-8.28652h11.25769l-5.61508-17.76964-5.64261,17.76964zm32.5895-26.76563h10.5971v16.3038l15.27633-16.3038h12.30364l-19.79042,21.15006 21.82727,23.51336h-13.26702l-16.3498-17.59014v17.59014h-10.5971v-44.66342zm43.89303-.8016 28.59633-.37397c-.28506,2.72793.69905,6.80243-.3586,8.71066l-17.54502.22943c.5715,2.50356-1.04602,7.4442 1.002,8.30393l16.01667-.20945c-.28506,2.72793.69904,6.80243-.35861,8.71064l-16.47163.21541 .11326,10.23027 18.6055-.24332c-.28506,2.72794.69904,6.80244-.3586,8.71066l-28.74686.37593-.49444-44.66019zm48.0169,6.51242 1.20631,27.2212c6.14666.0487 13.95799-1.12781 15.92405-8.6355 2.90773-8.64702-2.50113-19.8532-11.75351-18.81287-1.79439.00067-3.58476.14706-5.37685.22717zm-10.97015-8.14117c10.15521-.0673 21.06442-2.87039 30.47682,2.46476 13.12685,8.13131 12.19824,33.16001-2.42826,38.94636-8.36516,3.14905-17.35716,2.50202-26.07159,3.20058l-1.97697-44.6117zm-149.73472,78.89709c9.38308-.44063 3.86326-12.23688-3.08016-9.49416-4.10022-1.41368-2.34792,3.68833-2.74874,6.39325-1.38961,4.42532 2.94245,2.77995 5.4262,3.09565l.4027.005zm.14156,19.53791c9.33283,1.51556 7.62994-14.7125-1.23544-11.71385-3.17411-.41826-6.02911-.48126-4.89906,3.89236 .65528,2.34316-1.5892,7.76298 1.27923,7.758l4.85527.0635zm10.03104-15.93446c9.83284,2.75333 9.16628,20.49916-.71536,22.65587-8.5921,2.08108-17.48185.65098-26.21896.8959l.49443-44.66019c8.69185.49552 17.63718-.8561 26.06733,1.92279 7.60406,2.56674 8.23522,16.52064.37256,19.18563zm16.00493-19.70498h28.5984c-.31524,2.72401.62368,6.81108-.45501,8.70533h-17.54629c.54375,2.51086-1.12835,7.42998.91,8.31643h16.01783c-.31524,2.72401.62368,6.81109-.45502,8.70533h-16.47281v10.231h18.60684c-.31524,2.72401.62369,6.81109-.455,8.70534h-28.74894v-44.66343zm63.47246,38.00083h-16.56999c-1.13816,2.53646-1.41799,6.38689-3.06987,8.13694h-10.19714l15.22128-44.66342h12.63393l15.22128,44.66342h-10.65214l-2.58735-8.13694zm-13.9276-8.28652h11.25769l-5.61508-17.76964-5.64261,17.76964zm33.94604-29.71431h11.83572l14.94603,30.63319v-30.63319h10.04659v44.66343h-11.83571l-14.94603-30.63319v30.63319h-10.0466v-44.66343zm75.34984-.50682 .10465,9.45252c-5.11172-3.33773-23.22484-6.72704-18.86222,4.40519 6.87874,3.56579 17.48092,1.59973 21.00404,10.66014 3.48057,9.26884-2.98739,20.18697-12.4541,19.61757-6.3303.62292-12.7414-.50923-18.70629-2.83032-.0359-3.24058-.0718-6.48116-.10763-9.72174 6.21456,3.25871 14.47535,6.803 20.84498,2.35266 3.8226-6.76683-4.96087-8.22982-9.41259-9.02417-7.96826-.48365-14.36136-8.89326-11.50003-17.4639 2.97549-10.61094 15.30395-10.27667 23.47514-8.71518 1.88809.32771 3.76075.75703 5.61405,1.26723z" fill="#fff" stroke="#cfb533"/>
<path d="m306.9021,490.10311c2.89644-.66839 1.33063,2.55918 1.5123,4.26104l-.45888,6.77291c-2.89644.66838-1.33062-2.55919-1.5123-4.26104l.45888-6.77291zm.28782-4.24807c2.46149-1.05585 2.42505,3.49934.0468,2.28377-.45758-.32475.0509-1.62919-.0468-2.28377zm13.97631,9.48672-.39336,6.58983c-2.89098.69161-1.35113-2.54842-1.54646-4.24876 1.95149-4.44967-4.4642-8.54712-5.42565-2.36007l-.36834,6.17066c-2.89623.69319-1.36563-2.54171-1.5562-4.24935l.4045-6.77637c2.97636-.94484.6252,3.7002 3.30103.42206 3.10366-1.4914 6.23547,1.1375 5.58448,4.452zm11.96963-6.85766c-.60077,2.45817.0601,3.76301 2.73035,3.2311 2.59143,1.13521-1.23795,1.84118-2.7419,1.27487-.51677,1.57543-.24277,4.01591-.45636,5.923-1.01309,2.56672 6.70438,2.45272 2.26058,3.70856-4.31265.77465-4.34757-3.70783-3.93666-6.65908 1.00065-2.72221-1.10289-2.60681-1.12243-4.39644 2.65108.97837.1693-3.65836 2.41811-3.12007l.84831.0381zm10.02104,4.77446c-5.36034-.002-3.75229,11.07671 1.53745,7.86046 2.20116-1.95819 2.11813-7.6154-1.53745-7.86046zm.0546-1.52246c8.00948.10571 5.16822,14.80271-2.49629,11.02111-4.61393-2.19823-3.26566-11.64087 2.49629-11.02111zm16.28674,2.82788c3.10235-5.28867 8.98443-.42236 7.29116,4.31023-.5088,1.50091 1.0557,5.16696-1.37786,4.65785-1.19431-.79994-.11367-3.77833-.41235-5.43591 1.37651-5.95315-6.76596-4.53087-5.29039.72543-.51255,1.46265 1.06662,5.10968-1.37568,4.55712-1.1943-.79994-.11366-3.77834-.41235-5.43591 1.37684-5.95156-6.76265-4.52802-5.29039.72542-.51255,1.46266 1.06663,5.10969-1.37567,4.55712-1.19431-.79994-.11367-3.77833-.41235-5.43591 .26843-1.70684-.35756-4.34772.43848-5.50359 2.67716-.83128.37133,3.67682 2.95674.27896 1.91336-1.01386 4.70641-.28944 5.26066,1.99919zm15.79581,3.5608c-6.98122-1.12289-2.15172,7.92421 1.25623,2.65665 .78794-1.88972 1.14776-3.12231-1.25623-2.65665zm3.58948-.71512-.0471,6.24006c-2.91219,1.07481-.79951-3.62032-3.32859-.21068-6.77193,3.54375-7.93561-8.55318-.61644-6.72359 5.59664.52892-2.01163-5.39498-4.42597-1.90846-.56691-4.71683 10.30825-2.24269 8.41809,2.60267zm5.42302-7.80368c-.48681,2.48325.23355,3.75623 2.8764,3.10179 2.64101,1.01455-1.15175,1.8963-2.68021,1.39992-.44359,1.59758-.0574,4.02284-.18283,5.93774-.89368,2.6107 6.81033,2.14104 2.42915,3.60041-4.27236.97264-4.51388-3.50347-4.23946-6.47053 .87409-2.76544-1.2219-2.55318-1.32392-4.34001 2.69337.85511.00048-3.66228 2.27171-3.22823l.84916-.001zm10.23395,4.30874c-5.3548.24383-3.24128,11.23688 1.89568,7.78183 2.1092-2.0569 1.76728-7.70438-1.89568-7.78183zm-.0151-1.52337c8.00591-.26107 5.84044,14.5506-1.98915,11.12384-4.70972-1.9847-3.79514-11.47916 1.98915-11.12384zm21.17573.19049c1.39413,3.7206-7.81208-1.45715-5.38913,3.67938 4.02183-.18435 9.22484,4.87189 3.60067,7.04442-2.67046,2.21091-9.05932-2.80091-3.79416-1.44221 6.24009,1.47232 4.46583-4.19949-.26421-3.86672-5.43023-3.96797 2.11609-7.53165 5.84683-5.41487zm8.4977,4.85016c-7.02168-.83329-1.82226,8.0064 1.36499,2.60244 .70914-1.92068 1.01769-3.16709-1.36499-2.60244zm3.55685-.86291 .21093,6.23666c-2.86526,1.19431-.9485-3.58416-3.33445-.0729-6.61963,3.8207-8.28246-8.21777-.89389-6.69236 5.61371.29708-2.23297-5.30719-4.5011-1.72384-.76144-4.68935 10.20672-2.66695 8.51851,2.25241zm3.54915,1.78908-.28661-6.61489c2.80462-.98498 1.6058,2.39612 1.97479,4.06739-1.48413,4.63172 5.30612,8.07483 5.65002,1.80923l-.26843-6.19536c2.80462-.98497 1.6058,2.39612 1.97479,4.0674l.29386,6.78207c-2.85434,1.23371-.99145-3.60763-3.32566-.0514-2.93081,1.783-6.3128-.51-6.01276-3.86444zm20.36824-7.17627c.93161,3.49836-7.18865-1.27697-6.47553,4.45485-1.39672,5.18426 5.20753,5.15736 6.9452,4.60881-2.52006,5.55945-12.43743-1.51812-8.20022-6.97318 1.42632-2.75199 5.10812-3.13149 7.73055-2.09048zm12.67322,3.86399c-.009,1.87822-3.53907.63145-5.04527,1.18092-5.37275-1.26404-1.90039,5.35388 1.98806,3.62357 2.62588-2.38914 4.57583.71548 1.01498,1.31406-8.72988,4.00063-11.36575-12.26267-1.98981-11.08173 2.47014.20069 4.0204,2.64598 4.03204,4.96318zm-1.82505-.4196c.64081-6.29156-9.66388-.81586-5.12008.31275l5.12008-.31275z" fill="#b4980e"/>
<path d="m364.17342,527.84182c-.7889.22422-.87794-.35435-.73795-1.19564 .23319-.96357-.17048-1.19661-.8819-1.07663l-2.09815-.11755c-.0437-1.04727.70847-1.78548 1.04104-2.68664l1.81483-3.66503c.5043.11215 1.44144-.2722 1.14645.75681l-.18438,5.17797c.50022-.18418 1.43018.24661.76631.67373-.7694-.3067-.91348.24432-.82975,1.10781l-.0365,1.02517zm-3.11527-2.98685 2.43624.1365 .1772-5.41757-2.61344,5.28107zm7.90482-5.47809c1.82553.10167 2.07915,2.88627 1.9675,4.67765 .07,1.86649-.83091,4.58492-2.66881,3.89366-1.57485-.73245-1.62731-3.27442-1.50321-5.0628 .11979-1.5134.70713-3.63221 2.20452-3.50851zm-.20715,8.10927c1.83604-.65235 1.31857-3.88452 1.30511-5.75774-.0766-2.66651-2.67836-1.66811-2.43591.58913-.0655,1.64678-.52239,4.61899 1.1308,5.16861zm6.60343-7.90633c1.82646.0706 2.11015,2.85065 2.01788,4.64377 .0902,1.86512-.78127,4.59863-2.62647,3.93869-1.58263-.70559-1.66256-3.24644-1.5578-5.03677 .10342-1.5153.66779-3.6439 2.16639-3.54569zm-.11948,8.11206c1.82881-.68352 1.27646-3.9066 1.24275-5.77942-.10538-2.66495-2.69615-1.6224-2.42931.63051-.0477,1.64774-.47241,4.62745 1.18656,5.14891zm8.14153-3.35384c.38304-2.09161-1.9253-3.94164-2.94571-1.8626-.6126,1.49969-.53279,4.25328 1.1039,4.59089 1.26706.24756 1.91014-1.37424 1.84181-2.72829zm.9522,2.85455c.29588,2.46068-1.60409,4.27595-3.44307,3.63312-1.12434.6786-1.64844-2.25168-.46827-1.16137 1.35071.79734 3.22075-.31156 2.94806-2.37613 .1014-1.14002-1.09621,1.53595-1.88175.80001-1.97082.0433-2.72387-2.9412-2.28548-4.95983 .17948-2.23443 2.55638-3.46639 3.84958-1.83486 .69359,1.44081-.11337-1.25.98573-.5423 .64622-.0962.17266,1.19903.31289,1.73158-.006,1.56993-.0118,3.13985-.0177,4.70978zm5.30065-8.92291c.49421.14418 1.29116-.36774 1.55652.27243l3.442,7.82065-.11141-8.19758c.5641-.022 1.28977-.25367 1.03653.78515 .0407,2.99732.0815,5.99463.12221,8.99195-.49422-.14418-1.29116.36775-1.55652-.27242l-3.442-7.82065 .11141,8.19757c-.5641.022-1.28977.25367-1.03653-.78515-.0407-2.99731-.0815-5.99463-.12221-8.99195zm7.90614-.1931 4.93775-.19311c.16527.89133-.0354,1.35135-.79926,1.14773l-3.05417.11944 .0721,2.9 3.71901-.14544c.16527.89132-.0354,1.35135-.79926,1.14772l-2.89202.11311 .0882,3.54954 3.9753-.15547c.16528.89132-.0354,1.35135-.79925,1.14773l-4.20492.16445-.24349-9.7957zm5.60315-.21973 6.60339-.35732c.17375.88878-.0225,1.35178-.78827,1.15962l-1.94441.10521 .2984,8.67646c-.56789.0305-1.3183.31052-1.08909-.74902l-.27066-7.87001-2.77102.14995c-.0128-.37163-.0256-.74326-.0383-1.11489z" fill="#e4b240"/>
<path d="m363.6528,344.59608h-11.74377c-.57229-2.16178 1.54376-1.39675 2.88404-1.56959 1.91612.41664 1.71839-1.75046 1.68298-3.09321-.0441-4.43469.0916-8.87987-.0741-13.30747-.45507-1.37927-2.21862-.65395-3.29372-.83287-1.08142.32022-1.23276-.36417-1.08053-1.37644 2.32654-.0955 4.84719-.6894 6.59243-2.37137 1.86776-.43674.40488,2.46973.75285,3.62546-.0448,5.37912-.009,10.75915-.0203,16.13865 .0488,2.66921 4.23397.0322 4.30012,1.96953v.81731zm15.96926-6.43855c.13248,3.21475-2.22849,6.12449-5.18782,6.44834-2.54542.31104-5.68152.4818-7.57907-1.71552-2.10826-2.59475-1.43297-7.18001 1.5866-8.60876 .98292-.45389 2.04177-.72092.51713-1.32334-3.16932-2.03869-3.10427-7.59203-.00048-9.66233 2.82404-2.09328 7.46604-1.63841 9.32912,1.68021 1.28055,2.52921-.12884,5.67384-2.39263,6.88261-.39062.75929 2.62369,1.61665 2.93813,3.13771 .54424.94119.79418,2.05691.78902,3.16108zm-3.05456-10.82702c.19535-2.78324-2.64985-4.51138-4.93587-3.79535-2.62792.22431-3.72548,4.08708-1.69409,5.88948 1.49601.93521 4.03451,3.16094 5.34548,1.16119 .73911-.89345 1.29364-2.03187 1.28448-3.25532zm.68209,12.17238c.20375-2.43072-1.87589-3.932-3.8026-4.46066-.84348-.16339-1.72139-1.0432-2.53636-.61299-2.71772,1.06926-3.61589,4.93561-2.15748,7.47611 1.76624,2.48902 5.71798,2.34043 7.67904.2102 .57979-.71336.82531-1.67732.8174-2.61266zm18.88018-6.887c.0323,4.47238-1.48698,9.67733-5.55308,11.60931-2.22568.81904-4.95645.88049-6.9937-.5214-2.34092-1.58546-.10274-6.30519 2.28583-4.1048 1.23351,1.5063-1.36337,4.77944 1.95022,4.08566 2.90467-.14171 4.23077-3.47221 4.55183-6.17578 .0143-1.09539 1.24044-5.43295-.28405-3.00106-2.59064,3.25628-8.119,2.13879-9.49789-1.88128-1.78295-4.35034 1.02691-10.21215 5.56339-10.54587 3.11867-.50014 6.06139,1.82058 7.05997,4.94955 .67074,1.76468.91756,3.68741.91748,5.58567zm-3.4994-3.23529c.12084-2.60056-1.14027-6.37804-4.11662-5.93203-2.58832.35098-3.26547,3.70911-3.20495,6.06501-.19441,2.48526 1.33071,5.50832 3.99269,4.92817 2.30421-.26625 3.45507-2.78467 3.32888-5.06115zm20.09609,8.04018c.10481,3.62222-2.47814,7.25452-5.97447,7.32921-3.02879.49092-6.11121-1.444-7.16498-4.56039-1.64579-4.74954-1.11645-10.47063 1.56065-14.6718 2.08012-3.49091 7.10468-4.74498 10.1275-1.98314 2.45609,1.85583-.33503,6.61508-2.56524,3.85792-.88682-1.54892 1.58414-4.22368-1.35119-3.97005-2.98197-.0397-4.60636,3.30986-4.94698,6.10222-.0842,1.07772-.71102,4.03766-.20192,3.83114 2.09673-3.27447 7.10757-3.4098 9.24513-.12538 .87199,1.17784 1.28383,2.6931 1.2715,4.19027zm-3.2325.22422c.37779-2.85758-2.04045-5.91329-4.79685-4.6347-2.77415,1.24104-2.98914,5.31144-2.01105,7.95409 .68895,3.08557 5.08607,3.80636 6.12581.62062 .52051-1.22985.68022-2.59894.68209-3.94001z" fill="none" stroke="#cfb533"/>
</g>
</svg>
